<svg width="108" height="100" viewBox="0 0 108 100" fill="none" xmlns="http://www.w3.org/2000/svg">
<path d="M79.5969 21.5149C77.7212 17.027 73.5173 11.988 70.4424 8.66258C69.5054 7.64875 67.8269 8.47217 68.049 9.83507C68.4482 12.2753 68.6937 15.5021 68.2895 19.205C68.1526 20.4643 69.6257 21.2426 70.5827 20.4142C71.0571 20.0033 71.7469 19.9532 72.2646 20.3057C73.3236 21.0238 74.937 22.4986 75.1942 24.9271C75.5499 28.2509 74.2472 32.6135 73.5273 34.7029C73.2935 35.3827 72.5887 35.7702 71.8888 35.6015C69.9096 35.1205 65.5838 34.2636 59.7798 34.2353C59.0983 34.2319 58.5204 33.7275 58.4169 33.0544L55.9433 16.9602C55.7596 15.7677 57.0757 14.9209 58.0845 15.5823L58.9029 16.1184C60.0687 16.8834 61.5118 15.6491 60.9372 14.3781L54.8125 0.819241C54.3182 -0.27308 52.7665 -0.27308 52.2722 0.819241L46.1441 14.3781C45.5696 15.6491 47.011 16.8817 48.1784 16.1184L49.0002 15.5806C50.009 14.9192 51.3251 15.766 51.1414 16.9585L48.6678 33.0544C48.5643 33.7275 47.9864 34.2319 47.3049 34.2353C41.4993 34.2653 37.1734 35.1205 35.1942 35.6015C34.4944 35.7719 33.7895 35.3844 33.5557 34.7029C32.8375 32.6135 31.5364 28.2509 31.8922 24.9271C32.1511 22.4986 33.7611 21.0255 34.8201 20.3057C35.3378 19.9532 36.0293 20.0033 36.5036 20.4142L36.5053 20.4159C37.464 21.2443 38.9371 20.466 38.7985 19.2066C38.3943 15.5038 38.6398 12.2769 39.039 9.83674C39.2612 8.47384 37.5826 7.65042 36.6456 8.66424C33.5691 11.9896 29.3651 17.0287 27.4895 21.5166C24.8305 27.8751 23.0501 35.234 22.5089 37.6124C22.3987 38.0985 22.5573 38.6012 22.9231 38.9403L28.4198 44.0194C28.7722 44.3451 29.2683 44.467 29.7309 44.3401C31.4479 43.8691 35.8322 42.7433 39.3564 42.4711C42.179 42.2523 45.3023 42.1421 47.1129 42.0919C47.9363 42.0686 48.596 42.7617 48.5375 43.5835L48.0348 50.6835C48.0148 50.9675 48.0816 51.2497 48.2269 51.4953L52.3473 58.42C52.8885 59.3286 54.2029 59.3286 54.7424 58.42L58.8612 51.4953C59.0065 51.2514 59.0733 50.9675 59.0532 50.6835L58.5488 43.5835C58.4904 42.7617 59.1501 42.0686 59.9735 42.0903C61.784 42.1404 64.9073 42.2506 67.73 42.4694C71.2558 42.7417 75.6385 43.8691 77.3554 44.3384C77.8181 44.4653 78.3141 44.3434 78.6666 44.0177L84.1649 38.9386C84.5307 38.5995 84.6894 38.0968 84.5791 37.6108C84.0396 35.2324 82.2575 27.8734 79.5969 21.5149Z" fill="#DC264A"/>
<path d="M106.863 87.8542L99.0248 48.4037C97.3028 39.2225 89.4094 32.2744 79.9009 32.1859V32.1792H27.3726C17.7772 32.1759 9.78686 39.164 8.05485 48.4087L0.219864 87.8575C0.0745556 88.554 -0.010625 89.2672 0.0010665 90.0088C-0.00728458 95.5255 4.39374 100 9.82528 100C13.321 100 16.3942 98.146 18.1379 95.3468L29.1113 81.6527C30.1351 80.375 31.9222 80.096 33.3486 80.8994C35.0071 81.8314 36.9162 82.3642 38.9455 82.3658C44.4171 82.3625 49.0052 78.4976 50.2044 73.2999C50.5635 71.7399 51.898 70.6008 53.4997 70.6008H53.7687C55.3687 70.6008 56.7016 71.7383 57.0623 73.2966C58.2615 78.4926 62.8513 82.3608 68.3246 82.3608C70.3205 82.3608 72.1945 81.8481 73.833 80.9462C75.246 80.1678 77.003 80.4518 78.0135 81.7111L88.9417 95.3468C90.6888 98.1377 93.7637 100 97.2544 100C102.686 100 107.092 95.5255 107.085 90.0037C107.092 89.2605 107.008 88.5473 106.863 87.8542Z" fill="#DC264A"/>
<path d="M90.0792 67.4742C99.4695 67.4742 107.082 59.8618 107.082 50.4714C107.082 41.081 99.4695 33.4686 90.0792 33.4686C80.6888 33.4686 73.0764 41.081 73.0764 50.4714C73.0764 59.8618 80.6888 67.4742 90.0792 67.4742Z" fill="white"/>
<path d="M90.0791 66.3402C98.8432 66.3402 105.948 59.2355 105.948 50.4714C105.948 41.7074 98.8432 34.6027 90.0791 34.6027C81.3151 34.6027 74.2104 41.7074 74.2104 50.4714C74.2104 59.2355 81.3151 66.3402 90.0791 66.3402Z" fill="#DC264A"/>
<path d="M77.0181 58.0208C72.921 50.2727 75.879 40.6706 83.6271 36.5736C86.6018 35.0002 89.8487 34.4691 92.9536 34.8466C89.5196 34.1768 85.8418 34.6328 82.5064 36.3949C74.7582 40.4919 71.8003 50.094 75.8973 57.8421C78.421 62.6156 83.0358 65.5685 88.0181 66.1765C83.4718 65.2913 79.3513 62.4335 77.0181 58.0208Z" fill="white"/>
<path d="M88.0816 56.9619C92.7768 56.9619 96.583 53.1557 96.583 48.4605C96.583 43.7653 92.7768 39.9591 88.0816 39.9591C83.3864 39.9591 79.5802 43.7653 79.5802 48.4605C79.5802 53.1557 83.3864 56.9619 88.0816 56.9619Z" fill="white"/>
<path d="M53.5432 50.4698C61.8488 50.4698 68.5818 43.7367 68.5818 35.4311C68.5818 27.1255 61.8488 20.3925 53.5432 20.3925C45.2376 20.3925 38.5045 27.1255 38.5045 35.4311C38.5045 43.7367 45.2376 50.4698 53.5432 50.4698Z" fill="#DC264A"/>
<path d="M53.5432 49.0033C61.0389 49.0033 67.1154 42.9268 67.1154 35.4311C67.1154 27.9354 61.0389 21.8589 53.5432 21.8589C46.0475 21.8589 39.971 27.9354 39.971 35.4311C39.971 42.9268 46.0475 49.0033 53.5432 49.0033Z" fill="white"/>
<path d="M53.5432 66.1999C57.7338 66.1999 61.131 62.8027 61.131 58.6121C61.131 54.4215 57.7338 51.0243 53.5432 51.0243C49.3526 51.0243 45.9554 54.4215 45.9554 58.6121C45.9554 62.8027 49.3526 66.1999 53.5432 66.1999Z" fill="white"/>
<path d="M53.5432 64.6766C56.8926 64.6766 59.6077 61.9614 59.6077 58.612C59.6077 55.2627 56.8926 52.5475 53.5432 52.5475C50.1938 52.5475 47.4786 55.2627 47.4786 58.612C47.4786 61.9614 50.1938 64.6766 53.5432 64.6766Z" fill="#DC264A"/>
<path d="M53.4363 32.9909C54.0041 32.9909 54.4868 33.188 54.881 33.5838C55.2752 33.9797 55.4739 34.4607 55.4739 35.0286C55.4739 36.0073 54.866 36.7656 53.6501 37.3034L52.0383 38.0149C50.8692 38.536 50.0641 39.2676 49.6215 40.2062C49.1789 41.1466 48.9584 42.603 48.9584 44.5772V46.0704H57.7471C57.7471 44.933 57.8507 44.1914 58.0561 43.844C58.2615 43.4966 58.8378 43.0857 59.7864 42.6114C62.6926 41.1583 64.1457 38.6396 64.1457 35.0536C64.1457 32.1475 63.1302 29.7106 61.1009 27.7448C59.0716 25.7789 56.5713 24.7952 53.6033 24.7952C51.9297 24.7952 50.3096 25.191 48.7463 25.9793C47.183 26.7694 45.912 27.835 44.9315 29.1778C43.6054 30.995 42.9406 33.34 42.9406 36.2144H51.1147C51.1147 34.0665 51.888 32.9909 53.4363 32.9909Z" fill="#DC264A"/>
<path d="M90.0792 67.4742C99.4695 67.4742 107.082 59.8618 107.082 50.4714C107.082 41.081 99.4695 33.4686 90.0792 33.4686C80.6888 33.4686 73.0764 41.081 73.0764 50.4714C73.0764 59.8618 80.6888 67.4742 90.0792 67.4742Z" fill="white"/>
<path d="M90.0791 66.3402C98.8432 66.3402 105.948 59.2355 105.948 50.4714C105.948 41.7074 98.8432 34.6027 90.0791 34.6027C81.3151 34.6027 74.2104 41.7074 74.2104 50.4714C74.2104 59.2355 81.3151 66.3402 90.0791 66.3402Z" fill="#DC264A"/>
<path d="M77.0181 58.0208C72.921 50.2727 75.879 40.6706 83.6271 36.5736C86.6018 35.0002 89.8487 34.4691 92.9536 34.8466C89.5196 34.1768 85.8418 34.6328 82.5064 36.3949C74.7582 40.4919 71.8003 50.094 75.8973 57.8421C78.421 62.6156 83.0358 65.5685 88.0181 66.1765C83.4718 65.2913 79.3513 62.4335 77.0181 58.0208Z" fill="white"/>
<path d="M88.0164 56.9803C92.7116 56.9803 96.5178 53.1741 96.5178 48.4789C96.5178 43.7837 92.7116 39.9775 88.0164 39.9775C83.3212 39.9775 79.515 43.7837 79.515 48.4789C79.515 53.1741 83.3212 56.9803 88.0164 56.9803Z" fill="white"/>
<path d="M17.0072 67.4742C26.3976 67.4742 34.01 59.8618 34.01 50.4714C34.01 41.081 26.3976 33.4686 17.0072 33.4686C7.6168 33.4686 0.00439453 41.081 0.00439453 50.4714C0.00439453 59.8618 7.6168 67.4742 17.0072 67.4742Z" fill="white"/>
<path d="M17.0072 66.3402C25.7713 66.3402 32.8759 59.2355 32.8759 50.4714C32.8759 41.7074 25.7713 34.6027 17.0072 34.6027C8.24316 34.6027 1.13849 41.7074 1.13849 50.4714C1.13849 59.2355 8.24316 66.3402 17.0072 66.3402Z" fill="#DC264A"/>
<path d="M30.0683 58.0208C34.1653 50.2727 31.2074 40.6706 23.4592 36.5736C20.4846 35.0002 17.2377 34.4691 14.1328 34.8466C17.5667 34.1768 21.2445 34.6328 24.58 36.3949C32.3281 40.4919 35.286 50.094 31.189 57.8421C28.6653 62.6156 24.0505 65.5685 19.0682 66.1765C23.6146 65.2913 27.735 62.4335 30.0683 58.0208Z" fill="white"/>
<path d="M19.0048 56.9619C23.7 56.9619 27.5062 53.1557 27.5062 48.4605C27.5062 43.7653 23.7 39.9591 19.0048 39.9591C14.3096 39.9591 10.5034 43.7653 10.5034 48.4605C10.5034 53.1557 14.3096 56.9619 19.0048 56.9619Z" fill="white"/>
</svg>
